<mxfile host="65bd71144e">
    <diagram id="NR0reiNICGvNRZoW0T6d" name="Page-1">
        <mxGraphModel dx="2502" dy="1206" grid="1" gridSize="10" guides="1" tooltips="1" connect="1" arrows="1" fold="1" page="1" pageScale="1" pageWidth="850" pageHeight="1100" math="0" shadow="0">
            <root>
                <mxCell id="0"/>
                <mxCell id="1" parent="0"/>
                <mxCell id="6" style="edgeStyle=none;html=1;entryX=0.5;entryY=0;entryDx=0;entryDy=0;" parent="1" source="2" target="3" edge="1">
                    <mxGeometry relative="1" as="geometry"/>
                </mxCell>
                <mxCell id="2" value="app-router.module" style="rounded=0;whiteSpace=wrap;html=1;" parent="1" vertex="1">
                    <mxGeometry x="160" y="120" width="120" height="60" as="geometry"/>
                </mxCell>
                <mxCell id="10" style="edgeStyle=none;html=1;entryX=0.5;entryY=0;entryDx=0;entryDy=0;exitX=0.5;exitY=1;exitDx=0;exitDy=0;" parent="1" source="3" target="8" edge="1">
                    <mxGeometry relative="1" as="geometry"/>
                </mxCell>
                <mxCell id="11" style="edgeStyle=none;html=1;exitX=0.5;exitY=1;exitDx=0;exitDy=0;entryX=0.5;entryY=0;entryDx=0;entryDy=0;" parent="1" source="3" target="9" edge="1">
                    <mxGeometry relative="1" as="geometry"/>
                </mxCell>
                <mxCell id="30" style="edgeStyle=none;html=1;entryX=0.5;entryY=0;entryDx=0;entryDy=0;exitX=0.5;exitY=1;exitDx=0;exitDy=0;" parent="1" source="3" target="28" edge="1">
                    <mxGeometry relative="1" as="geometry"/>
                </mxCell>
                <mxCell id="3" value="Home Page" style="rounded=0;whiteSpace=wrap;html=1;" parent="1" vertex="1">
                    <mxGeometry x="160" y="270" width="120" height="60" as="geometry"/>
                </mxCell>
                <mxCell id="5" style="edgeStyle=none;html=1;entryX=0.5;entryY=0;entryDx=0;entryDy=0;" parent="1" source="4" target="2" edge="1">
                    <mxGeometry relative="1" as="geometry"/>
                </mxCell>
                <mxCell id="4" value="App.module" style="rounded=0;whiteSpace=wrap;html=1;" parent="1" vertex="1">
                    <mxGeometry x="160" y="20" width="120" height="60" as="geometry"/>
                </mxCell>
                <mxCell id="7" value="Lazy loading" style="text;html=1;align=center;verticalAlign=middle;resizable=0;points=[];autosize=1;strokeColor=none;fillColor=none;" parent="1" vertex="1">
                    <mxGeometry x="220" y="210" width="90" height="30" as="geometry"/>
                </mxCell>
                <mxCell id="22" style="edgeStyle=none;html=1;entryX=0.5;entryY=0;entryDx=0;entryDy=0;exitX=0.5;exitY=1;exitDx=0;exitDy=0;" parent="1" source="8" target="15" edge="1">
                    <mxGeometry relative="1" as="geometry"/>
                </mxCell>
                <mxCell id="8" value="Module 1&amp;nbsp;" style="rounded=0;whiteSpace=wrap;html=1;" parent="1" vertex="1">
                    <mxGeometry x="80" y="480" width="120" height="60" as="geometry"/>
                </mxCell>
                <mxCell id="23" style="edgeStyle=none;html=1;entryX=0.5;entryY=0;entryDx=0;entryDy=0;exitX=0.5;exitY=1;exitDx=0;exitDy=0;" parent="1" source="9" target="15" edge="1">
                    <mxGeometry relative="1" as="geometry">
                        <mxPoint x="330" y="550" as="sourcePoint"/>
                    </mxGeometry>
                </mxCell>
                <mxCell id="9" value="Module 2" style="rounded=0;whiteSpace=wrap;html=1;" parent="1" vertex="1">
                    <mxGeometry x="240" y="480" width="120" height="60" as="geometry"/>
                </mxCell>
                <mxCell id="21" value="" style="group" parent="1" vertex="1" connectable="0">
                    <mxGeometry x="40" y="680" width="760" height="140" as="geometry"/>
                </mxCell>
                <mxCell id="15" value="" style="rounded=0;whiteSpace=wrap;html=1;" parent="21" vertex="1">
                    <mxGeometry width="760" height="140" as="geometry"/>
                </mxCell>
                <mxCell id="12" value="Component 1&amp;nbsp;" style="rounded=0;whiteSpace=wrap;html=1;" parent="21" vertex="1">
                    <mxGeometry x="20" y="70" width="120" height="60" as="geometry"/>
                </mxCell>
                <mxCell id="13" value="Component 2" style="rounded=0;whiteSpace=wrap;html=1;" parent="21" vertex="1">
                    <mxGeometry x="150" y="70" width="120" height="60" as="geometry"/>
                </mxCell>
                <mxCell id="14" value="Component 3" style="rounded=0;whiteSpace=wrap;html=1;" parent="21" vertex="1">
                    <mxGeometry x="280" y="70" width="120" height="60" as="geometry"/>
                </mxCell>
                <mxCell id="16" value="Component n" style="rounded=0;whiteSpace=wrap;html=1;" parent="21" vertex="1">
                    <mxGeometry x="620" y="70" width="120" height="60" as="geometry"/>
                </mxCell>
                <mxCell id="17" value="Component 4" style="rounded=0;whiteSpace=wrap;html=1;" parent="21" vertex="1">
                    <mxGeometry x="410" y="70" width="120" height="60" as="geometry"/>
                </mxCell>
                <mxCell id="18" value="index-component.module" style="text;html=1;align=center;verticalAlign=middle;resizable=0;points=[];autosize=1;strokeColor=none;fillColor=none;" parent="21" vertex="1">
                    <mxGeometry width="160" height="30" as="geometry"/>
                </mxCell>
                <mxCell id="19" value="" style="endArrow=none;dashed=1;html=1;dashPattern=1 3;strokeWidth=2;" parent="21" edge="1">
                    <mxGeometry width="50" height="50" relative="1" as="geometry">
                        <mxPoint x="545" y="99.5" as="sourcePoint"/>
                        <mxPoint x="605" y="99.5" as="targetPoint"/>
                    </mxGeometry>
                </mxCell>
                <mxCell id="25" value="" style="shape=curlyBracket;whiteSpace=wrap;html=1;rounded=1;labelPosition=left;verticalLabelPosition=middle;align=right;verticalAlign=middle;" parent="1" vertex="1">
                    <mxGeometry x="40" y="460" width="20" height="120" as="geometry"/>
                </mxCell>
                <mxCell id="27" value="Single Point &lt;br&gt;of business logic" style="text;html=1;align=center;verticalAlign=middle;resizable=0;points=[];autosize=1;strokeColor=none;fillColor=none;" parent="1" vertex="1">
                    <mxGeometry x="-70" y="500" width="110" height="40" as="geometry"/>
                </mxCell>
                <mxCell id="31" style="edgeStyle=none;html=1;entryX=0.492;entryY=-0.009;entryDx=0;entryDy=0;entryPerimeter=0;exitX=0.5;exitY=1;exitDx=0;exitDy=0;" parent="1" source="28" target="15" edge="1">
                    <mxGeometry relative="1" as="geometry"/>
                </mxCell>
                <mxCell id="28" value="Module n" style="rounded=0;whiteSpace=wrap;html=1;" parent="1" vertex="1">
                    <mxGeometry x="440" y="480" width="120" height="60" as="geometry"/>
                </mxCell>
                <mxCell id="29" value="" style="endArrow=none;dashed=1;html=1;dashPattern=1 3;strokeWidth=2;" parent="1" edge="1">
                    <mxGeometry width="50" height="50" relative="1" as="geometry">
                        <mxPoint x="370" y="509.79" as="sourcePoint"/>
                        <mxPoint x="430" y="509.79" as="targetPoint"/>
                    </mxGeometry>
                </mxCell>
            </root>
        </mxGraphModel>
    </diagram>
</mxfile>
